<?xml version="1.0" standalone="no"?>
<!DOCTYPE svg PUBLIC "-//W3C//DTD SVG 20010904//EN"
 "http://www.w3.org/TR/2001/REC-SVG-20010904/DTD/svg10.dtd">
<svg version="1.0" xmlns="http://www.w3.org/2000/svg"
 width="541.000000pt" height="541.000000pt" viewBox="0 0 541.000000 541.000000"
 preserveAspectRatio="xMidYMid meet">
<metadata>
Created by potrace 1.11, written by Peter Selinger 2001-2013
</metadata>
<g transform="translate(0.000000,541.000000) scale(0.100000,-0.100000)"
fill="#000000" stroke="none">
<path d="M3085 5273 c-10 -3 -30 -12 -43 -21 -14 -9 -43 -15 -73 -14 -35 1
-52 -3 -56 -14 -3 -7 -10 -14 -15 -14 -6 0 -17 -8 -24 -17 -13 -17 -15 -17
-25 0 -13 22 -25 22 -56 -3 -32 -25 -39 -25 -45 -2 -7 25 -69 17 -116 -14 -19
-13 -38 -21 -42 -19 -5 3 -11 1 -15 -5 -3 -5 -17 -10 -31 -10 -14 0 -22 -4
-19 -10 3 -5 -1 -10 -9 -10 -8 0 -17 4 -20 9 -9 13 -139 7 -144 -7 -2 -7 -8
-12 -14 -12 -15 0 -58 -48 -58 -65 0 -8 -13 -21 -30 -30 -16 -9 -30 -23 -30
-33 0 -9 -7 -26 -15 -36 -8 -11 -15 -29 -15 -40 0 -24 -45 -71 -58 -62 -5 3
-17 -13 -27 -35 -10 -22 -27 -45 -37 -50 -10 -5 -18 -19 -18 -30 0 -13 -4 -18
-12 -13 -8 5 -9 2 -5 -9 3 -10 2 -17 -3 -17 -6 0 -10 -7 -10 -16 0 -8 -17 -33
-39 -55 -37 -38 -54 -77 -55 -126 0 -13 -4 -23 -9 -23 -14 0 -37 -27 -37 -45
0 -8 -7 -18 -15 -21 -8 -4 -15 -10 -15 -14 0 -5 -14 -23 -32 -40 -25 -26 -29
-34 -17 -41 11 -7 9 -10 -8 -15 -13 -4 -23 -11 -23 -18 0 -6 -9 -28 -20 -49
-11 -20 -17 -37 -14 -37 3 0 -3 -12 -13 -27 -35 -52 -66 -122 -60 -137 3 -8 0
-20 -8 -26 -12 -10 -45 -102 -45 -124 0 -4 9 -2 20 4 11 6 20 7 20 2 0 -10
-31 -39 -37 -34 -1 1 -3 0 -3 -3 0 -3 0 -10 0 -17 0 -6 12 -1 26 13 25 22 26
22 13 2 -7 -12 -23 -26 -36 -32 -13 -6 -23 -16 -23 -23 -1 -7 -2 -39 -4 -71
-3 -49 -1 -57 12 -52 13 5 13 3 1 -11 -7 -9 -16 -39 -20 -68 -3 -28 -10 -60
-14 -70 -6 -14 -5 -17 3 -12 14 9 15 -8 3 -52 -6 -20 -6 -32 0 -32 6 0 6 -8
-1 -20 -6 -11 -7 -32 -3 -47 4 -16 6 -36 4 -47 -2 -11 2 -16 8 -11 8 4 11 -11
9 -51 -2 -38 2 -59 10 -62 7 -2 10 -13 6 -28 -4 -15 -2 -24 5 -24 6 0 11 -9
11 -20 0 -35 25 -21 76 45 22 28 33 55 37 93 6 50 47 140 87 187 9 11 22 40
29 65 7 25 17 55 22 68 11 28 12 55 1 48 -4 -2 -7 15 -7 40 1 28 -3 44 -11 44
-8 0 -9 12 -3 43 4 23 8 49 8 57 1 13 0 13 -9 0 -8 -13 -10 -12 -11 5 -1 11
-1 33 0 49 3 27 1 29 -15 15 -16 -13 -16 -12 -7 6 11 20 19 73 28 174 8 92
132 286 188 295 6 1 18 5 25 9 7 5 12 3 12 -4 0 -7 12 -1 28 13 31 30 131 54
187 45 19 -3 35 -3 35 1 0 4 14 14 32 21 37 17 202 26 178 11 -13 -9 -13 -10
0 -11 8 0 4 -5 -10 -9 -26 -9 49 -4 98 6 15 3 21 1 17 -5 -3 -6 0 -8 8 -5 8 3
29 -4 48 -15 22 -12 48 -18 74 -16 22 1 34 1 27 -2 -10 -4 -7 -9 8 -20 16 -11
24 -12 35 -3 8 6 19 9 24 6 5 -4 12 -2 16 4 3 5 15 10 27 10 19 0 87 27 98 39
3 4 10 6 15 6 6 0 42 5 80 10 39 4 73 8 78 7 4 -1 7 3 7 8 0 12 22 9 32 -5 5
-6 12 -5 20 3 19 19 38 14 38 -9 0 -16 3 -19 13 -11 15 12 88 21 81 10 -3 -4
1 -8 8 -8 8 0 31 -9 52 -19 35 -18 37 -19 22 -2 -15 16 -15 19 -2 24 8 3 16 2
18 -3 2 -5 14 -11 28 -14 14 -2 25 -5 25 -6 0 -1 11 -4 25 -6 14 -3 45 -24 69
-47 29 -28 39 -34 32 -19 -11 22 -11 22 8 10 12 -7 21 -16 21 -19 0 -4 9 -9
19 -12 15 -3 18 -1 13 11 -4 12 2 11 25 -6 17 -12 33 -19 37 -15 3 3 6 -1 6
-10 0 -9 5 -17 11 -17 28 0 124 -155 161 -260 35 -99 40 -124 42 -194 1 -48 6
-72 17 -80 9 -6 14 -16 12 -22 -2 -6 3 -17 12 -24 17 -14 21 -35 5 -25 -5 3
-10 2 -10 -3 0 -16 12 -21 25 -9 11 10 11 16 0 33 -13 20 -12 21 5 17 21 -6
23 -12 20 -51 -1 -12 5 -25 14 -28 8 -3 12 -12 9 -20 -3 -8 -9 -11 -15 -8 -5
3 -2 -8 6 -25 9 -17 13 -31 8 -31 -5 0 -13 10 -19 23 l-10 22 -7 -22 c-8 -23
27 -103 44 -103 6 0 10 -6 10 -13 0 -8 9 -22 20 -32 20 -18 21 -18 14 0 -6 14
-4 16 6 10 9 -5 11 -4 6 4 -4 6 -12 9 -17 6 -5 -4 -9 3 -9 15 0 18 3 19 20 10
13 -7 20 -7 20 -1 0 6 7 8 15 5 11 -5 14 -2 9 12 -4 11 -12 25 -18 32 -7 10
-6 16 7 23 13 8 14 15 6 37 -6 15 -18 36 -27 47 -16 19 -16 19 1 6 13 -10 17
-10 17 -1 0 7 7 10 16 6 13 -5 14 -3 7 6 -18 22 -36 175 -21 184 17 11 -7 62
-45 96 -23 20 -45 37 -49 38 -5 0 -8 5 -8 12 0 6 11 1 24 -11 14 -13 29 -20
36 -16 6 3 9 1 8 -5 -4 -15 28 -37 39 -27 4 5 2 12 -6 16 -10 6 -9 10 3 14 19
8 13 47 -12 87 -9 14 -17 28 -17 32 0 3 -3 10 -7 14 -5 4 -8 15 -8 25 0 10 -5
21 -12 25 -7 5 -8 3 -3 -7 8 -12 6 -12 -8 0 -9 7 -15 17 -12 21 3 5 0 19 -5
32 -10 22 -10 22 -5 -4 3 -15 1 -29 -3 -32 -11 -7 -67 22 -89 46 -14 16 -9 14
21 -6 69 -46 75 -27 18 55 -48 69 -61 92 -29 54 13 -16 34 -41 45 -55 12 -14
21 -20 22 -13 0 6 -4 15 -10 18 -5 3 -10 11 -10 17 0 6 7 5 16 -3 15 -12 16
-11 9 11 -4 14 -11 27 -15 30 -3 3 -15 20 -26 38 -16 28 -17 34 -4 42 12 8 10
14 -11 37 -29 32 -29 64 2 56 15 -4 19 0 19 21 0 22 2 25 14 14 8 -7 11 -17 8
-22 -3 -5 0 -6 6 -2 7 4 12 1 12 -8 0 -9 -6 -13 -14 -10 -23 9 -27 -12 -6 -31
11 -10 18 -21 15 -24 -2 -4 5 -13 16 -19 18 -12 19 -11 10 6 -6 11 -6 23 -1
28 5 5 1 25 -10 46 -10 20 -16 39 -13 41 8 8 -105 162 -117 159 -6 -1 -9 2 -6
7 3 5 -1 11 -9 15 -9 3 -12 12 -8 22 5 14 8 13 24 -7 11 -14 19 -18 19 -10 0
7 -17 30 -37 49 -21 20 -30 33 -21 29 15 -5 16 -4 6 13 -7 10 -16 16 -21 13
-4 -3 -7 1 -5 8 4 18 -55 120 -84 145 -18 15 -20 15 -9 2 10 -13 10 -18 2 -18
-7 0 -9 -5 -5 -12 4 -7 3 -8 -5 -4 -6 4 -9 11 -6 16 3 5 1 11 -5 15 -6 4 -8
10 -6 14 3 4 -7 20 -22 34 -32 30 -123 62 -204 72 -32 4 -58 11 -58 16 0 13
-33 49 -46 49 -18 0 -9 -43 12 -50 18 -7 18 -7 -2 -14 -54 -17 -101 -15 -118
6 -10 11 -15 26 -12 34 5 12 42 20 70 15 5 -1 16 1 24 4 13 5 11 9 -7 22 -17
11 -26 12 -34 4 -6 -6 -16 -11 -21 -11 -6 0 -1 7 12 15 19 14 24 14 47 -1 30
-20 41 -14 24 13 -11 19 -69 48 -69 35 0 -8 -116 -4 -140 4 -22 8 12 25 50 26
35 1 30 18 -5 18 -13 0 -34 4 -47 9 -30 11 -138 20 -163 14z m290 -92 c17 -7
16 -9 -13 -16 -37 -8 -55 1 -32 15 17 11 18 11 45 1z m-160 -11 c-3 -5 -10
-10 -16 -10 -5 0 -9 5 -9 10 0 6 7 10 16 10 8 0 12 -4 9 -10z m570 -201 c16
-16 -19 -9 -40 7 -19 16 -19 16 5 9 14 -4 29 -11 35 -16z m-71 -60 c-2 -5 7
-11 21 -15 14 -3 25 -10 25 -16 0 -5 5 -6 11 -2 12 7 71 -45 64 -56 -2 -4 7
-13 20 -20 14 -7 25 -17 25 -21 0 -12 -47 15 -76 44 -14 14 -40 29 -57 33 -28
6 -30 8 -12 15 17 6 15 8 -10 9 -16 0 -41 7 -55 16 l-25 15 25 -7 c21 -6 23
-5 12 8 -10 13 -9 15 13 10 14 -2 22 -8 19 -13z m235 -663 c-3 -3 -11 5 -18
17 -13 21 -12 21 5 5 10 -10 16 -20 13 -22z m-2179 -190 c0 -2 -8 -10 -17 -17
-16 -13 -17 -12 -4 4 13 16 21 21 21 13z m2334 -22 c7 -19 2 -18 -19 6 -16 17
-16 20 -3 15 9 -4 19 -13 22 -21z m-2374 -33 c-11 -21 -30 -37 -30 -25 0 8 30
44 37 44 2 0 -1 -9 -7 -19z m-40 -45 c0 -2 -8 -10 -17 -17 -16 -13 -17 -12 -4
4 13 16 21 21 21 13z m2380 -10 c0 -3 -4 -8 -10 -11 -5 -3 -10 -1 -10 4 0 6 5
11 10 11 6 0 10 -2 10 -4z m45 -51 c1 -13 -3 -21 -8 -18 -4 3 -6 11 -4 17 3 7
1 19 -4 27 -6 9 -7 2 -5 -21 6 -49 -4 -58 -21 -19 -13 30 -12 35 3 46 22 16
39 2 39 -32z m-2437 -92 c-11 -18 -30 -40 -41 -48 -40 -28 -38 -15 4 24 22 22
38 44 35 49 -3 5 1 9 8 9 10 0 8 -9 -6 -34z m12 -88 c-18 -19 -36 -32 -39 -30
-4 5 58 64 68 65 3 0 -10 -16 -29 -35z m2454 -111 c9 -24 2 -26 -12 -4 -7 11
-8 20 -3 20 5 0 12 -7 15 -16z m0 -49 c3 -8 1 -15 -3 -15 -5 0 -11 7 -15 15
-3 8 -1 15 3 15 5 0 11 -7 15 -15z m-40 -51 c10 -25 -1 -29 -14 -5 -6 12 -7
21 -1 21 5 0 12 -7 15 -16z m-2441 -169 c-3 -9 -8 -14 -10 -11 -3 3 -2 9 2 15
9 16 15 13 8 -4z"/>
<path d="M3350 5236 c0 -2 7 -7 16 -10 8 -3 12 -2 9 4 -6 10 -25 14 -25 6z"/>
<path d="M3317 4419 c7 -7 15 -10 18 -7 3 3 -2 9 -12 12 -14 6 -15 5 -6 -5z"/>
<path d="M4065 4340 c3 -5 8 -10 11 -10 2 0 4 5 4 10 0 6 -5 10 -11 10 -5 0
-7 -4 -4 -10z"/>
<path d="M2288 3968 c-33 -11 -35 -19 -9 -42 13 -12 21 -14 26 -6 3 5 11 8 16
5 13 -9 11 9 -3 24 -8 9 -8 11 -2 8 7 -4 14 0 18 8 6 17 -7 18 -46 3z"/>
<path d="M2450 3970 c19 -13 30 -13 30 0 0 6 -10 10 -22 10 -19 0 -20 -2 -8
-10z"/>
<path d="M2247 3925 c3 -8 9 -12 14 -9 12 7 11 11 -5 17 -10 4 -13 1 -9 -8z"/>
<path d="M2367 3545 c-2 -6 -31 -9 -70 -8 -37 2 -67 -1 -67 -5 0 -5 -7 -9 -15
-9 -8 0 -15 4 -15 9 0 4 -26 -7 -58 -25 -33 -17 -58 -35 -58 -38 2 -15 -29
-40 -45 -36 -10 3 -18 2 -17 -2 5 -14 -24 -51 -35 -46 -7 4 -4 0 5 -8 13 -10
15 -16 6 -25 -9 -9 -9 -12 0 -12 7 0 16 8 19 17 6 15 7 14 13 -3 13 -35 -9
-60 -68 -79 -82 -25 -122 -53 -122 -84 0 -8 10 -4 24 12 l25 27 4 -103 c3 -89
8 -112 37 -181 23 -54 42 -84 62 -96 22 -13 25 -19 15 -30 -9 -10 -9 -11 0 -6
26 15 55 14 125 0 76 -16 95 -23 62 -25 -11 0 -4 -5 14 -10 34 -10 34 -10 13
-28 -21 -18 -19 -31 6 -31 7 0 13 8 14 18 0 13 2 12 9 -5 13 -32 47 -48 67
-32 12 11 17 10 27 -3 10 -13 15 -14 36 -3 33 16 141 27 160 15 10 -6 11 -10
3 -10 -16 0 -53 -31 -53 -44 0 -5 -16 -25 -36 -44 -20 -19 -41 -48 -46 -63 -5
-16 -14 -29 -20 -29 -5 0 -6 -5 -2 -12 4 -6 3 -8 -3 -5 -6 4 -16 1 -22 -7 -9
-11 -9 -15 1 -19 7 -3 3 -6 -9 -6 -13 -1 -22 -4 -20 -9 1 -4 -2 -8 -8 -10 -5
-2 -13 -12 -17 -23 -4 -11 -17 -19 -29 -19 -19 0 -20 -2 -8 -17 13 -15 12 -16
-8 -11 -21 6 -27 -1 -25 -23 1 -4 -8 -5 -18 -2 -22 6 -26 -7 -8 -25 9 -9 8
-12 -4 -12 -15 0 -28 -27 -28 -62 0 -18 25 -25 32 -10 6 15 89 63 99 57 5 -4
9 -3 8 2 -3 12 12 43 21 43 15 0 1 -67 -24 -110 -14 -25 -26 -51 -26 -57 0
-19 18 -15 23 5 4 14 5 13 6 -4 1 -29 -19 -85 -29 -79 -4 3 -6 -4 -3 -15 3
-11 13 -20 23 -20 15 0 16 -6 9 -47 -4 -27 -8 -59 -8 -72 -1 -20 1 -22 14 -11
9 7 19 10 22 6 4 -4 1 -11 -7 -16 -8 -6 -11 -10 -5 -10 17 0 -14 -24 -36 -27
-15 -2 -20 1 -16 12 10 24 -8 25 -19 0 -10 -20 -9 -22 4 -17 11 4 14 1 9 -11
-4 -11 -2 -14 9 -10 16 6 20 -12 4 -22 -16 -10 -12 -28 5 -21 18 6 19 1 5 -24
-9 -16 -8 -19 7 -14 15 5 15 4 4 -4 -21 -15 -26 -62 -6 -63 28 -3 33 -4 41
-11 4 -5 2 -8 -4 -8 -7 0 -9 -7 -3 -22 11 -30 55 -35 74 -8 13 19 16 19 30 6
8 -8 18 -12 22 -8 5 4 6 0 2 -9 -4 -13 -1 -16 13 -12 24 6 19 39 -6 35 -14 -3
-16 -1 -6 11 6 7 9 16 6 20 -3 3 5 4 18 1 12 -2 18 -2 12 1 -15 7 -6 45 9 41
7 -2 9 -1 5 1 -5 3 -8 11 -8 19 0 8 -7 14 -15 14 -8 0 -15 7 -15 15 0 9 -9 15
-22 15 -17 0 -19 3 -9 9 9 6 10 11 3 15 -6 4 -9 13 -6 21 5 13 9 13 27 0 29
-20 56 -4 50 30 -9 45 34 67 78 40 6 -4 13 2 16 15 3 12 11 19 19 16 7 -3 14
0 17 7 2 6 6 3 10 -7 4 -9 3 -15 -1 -12 -4 2 -14 1 -22 -4 -12 -7 -12 -11 0
-25 13 -16 15 -16 27 1 9 13 13 14 13 4 0 -9 5 -8 16 6 14 18 15 18 4 -3 -13
-28 2 -63 28 -63 23 0 47 -39 33 -53 -6 -6 -47 -10 -92 -9 -44 0 -78 -2 -75
-5 3 -3 0 -13 -7 -21 -10 -12 -6 -12 20 2 30 15 32 15 26 -1 -5 -11 -3 -14 6
-8 10 6 11 3 1 -15 -6 -12 -9 -24 -6 -28 3 -3 6 -1 6 3 0 5 7 0 15 -11 8 -10
15 -27 15 -38 0 -12 5 -16 15 -12 9 3 15 -1 15 -11 0 -12 3 -13 14 -4 8 7 20
11 28 10 34 -4 72 2 60 10 -11 7 -11 9 1 14 11 4 15 0 12 -13 -2 -11 4 -25 14
-32 12 -9 16 -19 11 -32 -6 -18 -7 -18 -13 -2 -4 11 -12 14 -19 10 -10 -6 -11
-5 -1 8 18 22 5 29 -18 10 -22 -19 -24 -32 -6 -56 11 -15 17 -17 35 -7 16 8
28 9 42 1 12 -6 20 -7 20 -1 0 5 9 7 20 4 11 -3 20 0 20 6 0 6 -6 11 -13 11
-8 0 -14 6 -14 13 0 8 6 14 13 14 7 0 11 -4 8 -9 -3 -4 1 -8 10 -8 8 0 16 -6
18 -12 3 -8 9 -4 17 10 6 12 17 22 23 22 6 0 5 -6 -3 -17 -13 -15 -12 -15 10
-3 21 11 22 14 8 22 -26 14 -20 27 9 22 21 -4 25 -2 20 11 -3 9 -6 20 -6 23 0
4 -5 0 -10 -8 -8 -12 -9 -9 -8 11 2 19 7 25 16 21 12 -4 12 -1 2 18 -11 20
-10 22 4 17 10 -4 16 -1 16 8 0 8 6 15 13 15 6 0 -1 12 -16 25 -15 14 -25 25
-21 25 3 0 0 7 -7 17 -10 11 -11 17 -3 20 15 5 5 43 -11 43 -7 0 -20 11 -29
25 -15 23 -15 26 -1 30 8 3 22 7 31 10 8 3 12 9 9 15 -3 5 -5 10 -3 11 2 0 23
3 48 5 24 3 62 14 85 23 22 10 62 21 90 25 27 3 54 11 59 16 6 6 20 10 33 10
19 0 23 -5 23 -29 0 -16 6 -34 14 -41 8 -6 12 -19 9 -27 -4 -9 -2 -14 3 -11
13 8 47 -18 40 -30 -3 -5 1 -16 10 -23 13 -11 14 -9 9 13 -5 20 -2 26 15 31
12 3 19 10 15 16 -3 6 -2 11 3 11 10 0 11 9 12 75 1 43 -11 105 -20 105 -4 0
-13 14 -19 30 -5 17 -6 30 -2 30 4 0 8 7 8 15 0 8 -3 13 -5 10 -10 -10 -40 47
-35 66 3 11 0 19 -7 19 -7 0 -10 7 -7 15 4 8 2 17 -4 20 -5 4 -7 11 -4 16 4 5
1 9 -4 9 -6 0 -11 10 -11 21 0 20 2 20 29 -7 16 -16 43 -51 60 -79 18 -30 31
-43 31 -32 0 10 -4 26 -10 36 -5 10 -11 30 -14 45 -3 14 -8 35 -11 46 -8 25 0
25 33 0 42 -33 49 -8 13 46 -18 25 -30 52 -28 58 3 7 -8 21 -24 31 -15 11 -30
29 -31 40 -2 11 -9 20 -15 20 -15 0 -40 33 -45 60 -7 41 -111 121 -142 109
-15 -6 -14 -10 4 -39 28 -46 28 -152 0 -188 -24 -30 -25 -41 -5 -33 8 3 15 1
15 -4 0 -13 -16 -13 -41 0 -13 7 -19 7 -19 0 0 -5 5 -10 10 -10 6 0 10 -5 10
-11 0 -5 -4 -7 -10 -4 -5 3 -10 1 -10 -4 0 -14 6 -14 31 0 18 9 19 8 10 -9 -8
-16 -7 -21 5 -26 10 -4 14 0 12 11 -2 10 5 19 15 21 11 2 17 -3 17 -15 0 -14
-2 -15 -9 -4 -6 9 -11 -2 -15 -34 -6 -34 -13 -49 -29 -55 -17 -8 -14 -9 16 -5
20 3 37 1 37 -4 0 -6 9 -9 21 -8 21 1 21 1 -1 19 -26 21 -12 24 16 4 15 -12
16 -17 7 -27 -10 -10 -9 -15 5 -25 14 -11 14 -15 4 -22 -11 -8 -11 -10 1 -15
21 -8 17 -87 -5 -100 -13 -9 -21 -7 -35 5 -27 23 -93 42 -138 39 -70 -5 -80
-7 -93 -15 -9 -5 -15 -1 -19 12 -3 13 -10 19 -20 15 -9 -3 -13 -14 -10 -25 4
-14 -2 -22 -20 -29 -14 -5 -28 -7 -31 -4 -3 3 0 5 6 5 19 0 14 35 -8 55 -12
11 -38 19 -62 20 -23 1 -44 7 -46 13 -2 7 -9 8 -20 2 -29 -15 -104 -47 -167
-71 -33 -13 -71 -33 -86 -46 -40 -36 -71 -25 -48 18 8 15 8 19 0 15 -6 -4 -11
-3 -11 2 0 5 9 12 20 15 13 3 20 14 20 28 0 18 3 20 12 11 8 -8 15 -6 29 9 10
11 20 20 23 20 3 -1 7 -1 9 0 1 0 20 2 42 4 22 3 41 9 43 14 2 6 12 7 27 1 12
-5 26 -6 30 -2 3 4 52 7 108 8 126 1 162 14 162 62 0 17 4 32 9 32 6 0 1 6 -9
14 -18 13 -17 13 6 12 18 -1 23 -7 22 -21 -1 -11 0 -14 3 -7 8 18 49 15 89 -8
20 -11 35 -15 35 -9 0 6 7 9 15 5 19 -7 19 14 0 40 -13 17 -14 17 -15 2 0 -9
-4 -20 -10 -23 -12 -7 -53 19 -43 28 3 4 -1 7 -10 7 -9 0 -17 -4 -17 -10 0
-18 -39 -10 -50 10 -8 15 -6 21 9 29 10 6 22 7 26 3 5 -4 5 -2 2 4 -4 7 3 14
15 17 12 4 19 9 16 13 -8 7 -60 -20 -101 -53 -31 -25 -113 -41 -129 -25 -7 7
-3 12 11 17 26 8 28 51 4 75 -16 15 -20 15 -55 -2 -21 -10 -37 -22 -35 -26 2
-7 -7 -13 -20 -11 -5 0 -38 0 -75 -1 -76 -1 -122 17 -140 55 -25 55 38 165 95
165 20 0 20 1 -4 26 l-24 25 61 59 c57 53 64 65 89 146 37 117 58 158 90 172
68 31 110 -4 156 -130 28 -78 83 -167 96 -155 2 2 29 -2 61 -9 83 -20 391 -19
489 2 123 25 166 44 185 84 50 104 58 137 58 249 l0 110 -37 10 c-117 31 -171
43 -193 44 -14 0 -19 2 -12 4 6 3 9 9 6 15 -4 6 0 14 7 19 9 5 16 3 21 -9 5
-14 7 -14 7 -1 1 8 -6 24 -15 35 -12 15 -15 16 -10 2 3 -12 -1 -16 -15 -15
-10 1 -19 6 -19 13 0 6 -7 17 -15 24 -8 7 -12 17 -8 22 3 6 0 9 -8 6 -20 -7
-39 16 -34 42 2 13 1 20 -2 16 -19 -19 -10 -47 22 -72 19 -14 35 -34 35 -43 0
-9 6 -23 13 -31 6 -8 2 -6 -10 4 -12 10 -21 22 -20 26 1 4 -15 24 -36 44 -20
21 -35 41 -32 46 3 5 0 12 -6 16 -8 4 -9 3 -5 -4 4 -7 3 -12 -3 -12 -5 0 -12
4 -15 9 -9 14 -55 20 -50 7 5 -13 -35 -14 -54 -2 -7 4 -17 4 -24 0 -7 -5 -8
-3 -3 6 5 8 3 11 -6 8 -8 -3 -13 -11 -11 -17 2 -8 -5 -7 -19 3 -13 9 -29 12
-43 7 -22 -8 -50 -7 -106 3 -43 7 -106 -7 -102 -22 1 -7 -2 -12 -6 -12 -5 0
-19 -9 -31 -19 -13 -11 -28 -22 -34 -24 -7 -2 -7 -17 1 -49 17 -68 16 -72 -33
-96 -34 -17 -64 -22 -118 -22 -50 0 -67 3 -57 10 12 8 12 10 1 10 -10 0 -11 3
-2 14 9 11 8 14 -6 12 -13 -1 -18 6 -16 24 1 14 0 30 -1 35 -2 6 -4 14 -4 18
-2 12 -25 31 -54 44 -16 7 -28 19 -28 27 0 8 -5 18 -12 22 -7 5 -8 3 -3 -6 5
-8 4 -11 -3 -6 -6 4 -9 13 -6 21 4 10 -5 16 -33 20 -21 3 -45 8 -54 9 -9 2
-23 0 -30 -5 -8 -5 -17 -3 -21 4 -5 8 -8 8 -8 1 0 -17 -89 -9 -103 9 -14 18
-85 28 -90 12z m1258 -235 c120 -14 191 -35 209 -63 18 -29 27 -121 19 -197
-11 -109 -53 -147 -193 -174 -77 -15 -213 -26 -204 -16 3 3 33 8 67 11 42 4
17 6 -73 6 -103 0 -120 -2 -70 -7 l65 -7 -77 -1 c-86 -2 -169 12 -211 37 -36
21 -69 77 -62 105 5 16 4 17 -4 7 -13 -20 -42 81 -44 153 -1 60 10 79 57 102
l31 15 -30 -27 c-16 -14 -25 -23 -18 -20 16 9 36 -30 28 -54 -4 -11 -3 -25 1
-32 12 -19 14 -57 3 -64 -5 -3 -6 -11 -2 -17 4 -7 8 -16 8 -21 0 -20 26 -16
33 5 l9 23 6 -25 c7 -27 61 -51 99 -44 11 2 30 -2 41 -9 24 -15 157 -30 157
-18 0 13 -41 33 -52 26 -6 -4 -4 3 5 17 9 13 17 31 17 41 0 11 7 18 20 18 21
0 60 71 60 110 0 22 0 22 32 3 42 -24 45 -39 11 -52 -25 -10 -24 -11 16 -6 33
4 48 1 63 -11 11 -11 22 -14 28 -8 21 22 -87 104 -138 104 -30 0 -39 11 -33
43 1 5 -22 8 -51 7 -72 -3 -78 -2 -78 15 0 12 19 15 103 17 l102 2 -90 6 -90
6 70 2 c39 1 111 -3 160 -8z m-961 -51 c22 -6 40 -18 43 -28 3 -11 13 -17 26
-16 29 3 37 -11 35 -65 l-1 -45 -7 50 c-6 40 -9 45 -14 28 -8 -22 -33 -21 -48
1 -5 7 -8 4 -8 -6 0 -10 -4 -18 -10 -18 -5 0 -10 5 -10 11 0 5 -4 8 -9 5 -8
-6 -25 30 -22 47 1 5 -6 7 -16 5 -15 -3 -18 -14 -18 -60 0 -31 -4 -60 -8 -64
-4 -4 -7 13 -7 37 0 64 -9 87 -36 93 -23 6 -31 25 -18 39 8 8 74 0 128 -14z
m-488 -2 c4 -4 2 -7 -5 -7 -16 0 -74 -40 -67 -47 2 -3 -7 -21 -20 -40 -13 -20
-24 -49 -24 -64 0 -16 -4 -29 -9 -29 -17 0 -18 25 -3 48 13 19 18 53 21 130 1
7 5 11 9 8 4 -2 14 -1 21 4 16 9 67 7 77 -3z m-140 -26 c-16 -11 -33 -27 -38
-35 -12 -21 -25 -20 -25 0 0 9 14 25 31 35 41 25 70 25 32 0z m-69 -83 c-3 -8
-6 -5 -6 6 -1 11 2 17 5 13 3 -3 4 -12 1 -19z m253 -8 c0 -5 -2 -10 -4 -10 -3
0 -8 5 -11 10 -3 6 -1 10 4 10 6 0 11 -4 11 -10z m-240 -50 c7 0 18 -39 22
-80 2 -20 21 -37 35 -33 6 2 14 0 17 -6 4 -6 14 -7 23 -4 12 5 15 2 10 -10 -4
-12 -1 -17 10 -17 13 0 14 -3 5 -12 -17 -17 -15 -48 2 -48 8 0 18 5 21 10 3 6
12 10 18 10 7 0 6 -4 -3 -11 -12 -9 -10 -10 8 -6 18 4 21 3 13 -7 -6 -7 -8
-16 -4 -19 3 -4 -4 -7 -16 -7 -12 0 -20 3 -18 8 3 4 -11 8 -30 9 -64 3 -123
60 -123 118 0 11 -2 47 -4 80 -3 33 -3 52 0 43 3 -10 9 -18 14 -18z m723 0 c3
-11 1 -20 -4 -20 -5 0 -9 9 -9 20 0 11 2 20 4 20 2 0 6 -9 9 -20z m-483 -52
c0 -5 -5 -8 -12 -8 -6 0 -22 -10 -35 -22 -26 -24 -40 -19 -24 10 5 10 7 29 4
41 l-6 22 36 -18 c20 -10 37 -21 37 -25z m462 -55 c-6 -9 -6 -29 -2 -45 6 -20
4 -32 -6 -43 -23 -22 -30 -18 -9 5 16 18 14 24 -6 22 -3 -1 -4 11 -2 26 7 42
11 52 23 52 7 0 8 -6 2 -17z m-567 -23 c3 -5 1 -10 -4 -10 -6 0 -11 5 -11 10
0 6 2 10 4 10 3 0 8 -4 11 -10z m108 -117 c-7 -2 -21 -2 -30 0 -10 3 -4 5 12
5 17 0 24 -2 18 -5z m304 1 c-3 -3 -12 -4 -19 -1 -8 3 -5 6 6 6 11 1 17 -2 13
-5z m-219 -132 c-8 -9 -14 -9 -24 -1 -19 16 -18 17 10 15 18 -1 22 -4 14 -14z
m970 -270 c-10 -2 -18 -8 -18 -14 0 -6 -2 -9 -5 -6 -12 12 7 37 23 30 16 -6
15 -7 0 -10z m-98 -290 c0 -27 -6 -57 -14 -67 -14 -19 -14 -19 -33 2 l-18 22
-26 -29 c-31 -35 -25 -49 7 -19 19 18 26 20 39 9 8 -7 15 -16 15 -20 0 -13
-72 -32 -132 -34 -16 -1 -28 -4 -28 -8 0 -11 -14 -10 -47 3 -26 10 -27 12 -8
19 11 5 34 9 50 9 17 1 37 6 45 11 17 10 -110 3 -174 -10 -44 -10 -66 -4 -66
16 0 10 -6 8 -20 -6 -24 -24 -46 -26 -66 -6 -15 16 -20 81 -5 72 5 -3 11 0 14
8 9 22 53 7 64 -22 10 -25 11 -26 12 -4 2 35 33 60 70 54 17 -2 34 -9 37 -14
4 -5 19 4 35 21 26 29 32 31 90 29 55 -2 62 -5 71 -28 9 -22 11 -23 17 -6 6
17 45 45 64 46 4 0 7 -22 7 -48z m-517 -56 c12 -9 14 -16 7 -21 -5 -3 -8 -10
-5 -15 10 -15 -25 -19 -40 -4 -37 37 -4 71 38 40z m257 -141 c0 -8 -4 -15 -10
-15 -5 0 -10 -12 -10 -26 0 -23 -1 -24 -16 -10 -8 9 -22 16 -29 16 -9 0 -12 6
-9 15 4 8 1 15 -5 15 -6 0 -11 -4 -11 -10 0 -5 -4 -10 -10 -10 -21 0 -9 19 18
28 42 16 82 14 82 -3z m8 -91 c12 -4 22 -13 22 -20 0 -20 -23 -17 -43 6 -18
21 -15 23 21 14z m-554 -113 c3 -5 0 -13 -7 -19 -10 -8 -13 -6 -13 9 0 20 11
25 20 10z m29 -71 c-3 -11 -9 -17 -14 -14 -14 8 -10 34 5 34 9 0 12 -7 9 -20z"/>
<path d="M3265 2960 c-3 -11 -3 -24 0 -30 10 -15 35 -12 35 5 0 8 -7 15 -15
15 -9 0 -12 6 -9 15 4 8 4 15 1 15 -3 0 -8 -9 -12 -20z"/>
<path d="M4036 3497 c3 -10 9 -15 12 -12 3 3 0 11 -7 18 -10 9 -11 8 -5 -6z"/>
<path d="M2050 3449 c0 -5 5 -7 10 -4 6 3 10 8 10 11 0 2 -4 4 -10 4 -5 0 -10
-5 -10 -11z"/>
<path d="M4083 3443 c19 -22 23 -38 6 -27 -8 4 -8 0 0 -15 9 -17 9 -20 -3 -15
-12 5 -14 -4 -10 -51 5 -66 8 -74 32 -70 9 2 19 4 22 4 2 1 -1 6 -8 13 -7 7
-12 18 -12 26 0 12 3 12 15 2 22 -18 20 13 -2 48 -16 24 -16 26 -1 14 15 -12
16 -11 10 10 -9 28 -32 61 -52 73 -11 6 -10 3 3 -12z m14 -165 c-3 -8 -6 -5
-6 6 -1 11 2 17 5 13 3 -3 4 -12 1 -19z"/>
<path d="M4094 3242 c-6 -4 -3 -21 8 -42 l18 -35 0 37 c0 38 -9 52 -26 40z"/>
<path d="M1831 3129 c-1 -21 -9 -29 -44 -43 -23 -9 -47 -16 -53 -16 -5 0 -25
-13 -43 -28 -30 -25 -32 -30 -19 -43 11 -11 13 -21 6 -39 l-10 -25 -9 24 c-9
24 -15 24 -79 7 -8 -3 -17 -5 -20 -6 -3 0 3 -5 13 -11 9 -6 15 -14 12 -20 -7
-11 35 -28 53 -22 6 3 12 0 12 -7 0 -9 4 -9 16 1 15 12 16 11 9 -11 -4 -14 -4
-22 -1 -18 4 3 16 41 27 84 11 43 24 83 29 88 5 5 32 9 59 10 28 1 51 5 51 9
0 5 5 5 12 1 7 -5 8 -3 3 7 -5 7 -12 29 -16 49 -5 28 -7 30 -8 9z"/>
<path d="M4046 3098 c15 -27 27 -38 35 -32 13 8 -9 44 -27 44 -9 0 -12 -5 -8
-12z"/>
<path d="M1523 2853 c3 -38 20 -108 37 -156 16 -49 31 -96 31 -105 4 -42 17
92 18 174 l1 91 -39 31 c-22 18 -43 32 -47 32 -4 0 -4 -30 -1 -67z"/>
<path d="M4161 2823 c1 -80 17 -98 18 -20 1 38 -3 67 -9 67 -5 0 -10 -21 -9
-47z"/>
<path d="M1683 2785 c0 -22 2 -30 4 -17 2 12 2 30 0 40 -3 9 -5 -1 -4 -23z"/>
<path d="M2035 2740 c-3 -5 -1 -10 4 -10 6 0 11 5 11 10 0 6 -2 10 -4 10 -3 0
-8 -4 -11 -10z"/>
<path d="M1661 2659 c-27 -29 -34 -70 -26 -138 7 -53 28 -121 39 -121 3 0 17
5 31 12 23 10 28 10 36 -5 6 -9 17 -17 26 -17 21 0 10 43 -23 91 -18 26 -24
48 -24 88 0 44 -21 111 -35 111 -2 0 -13 -10 -24 -21z"/>
<path d="M3120 2520 c0 -5 4 -10 9 -10 6 0 13 5 16 10 3 6 -1 10 -9 10 -9 0
-16 -4 -16 -10z"/>
<path d="M3076 2397 c2 -7 14 -13 25 -13 19 0 19 1 3 13 -10 7 -21 13 -26 13
-4 0 -5 -6 -2 -13z"/>
<path d="M1650 2361 c0 -14 44 -74 55 -75 23 -2 15 42 -11 63 -28 22 -44 27
-44 12z"/>
<path d="M2150 2309 c0 -5 5 -7 10 -4 6 3 10 8 10 11 0 2 -4 4 -10 4 -5 0 -10
-5 -10 -11z"/>
<path d="M1803 2197 c-9 -20 -9 -28 2 -37 18 -15 26 1 17 35 l-8 27 -11 -25z"/>
<path d="M2256 2185 c-9 -26 -7 -32 5 -12 6 10 9 21 6 23 -2 3 -7 -2 -11 -11z"/>
<path d="M2200 1920 c-13 -9 -13 -12 2 -20 11 -7 15 -17 11 -28 -4 -12 -3 -14
5 -7 15 14 20 57 7 61 -5 2 -17 -1 -25 -6z"/>
<path d="M2670 1911 c0 -6 4 -13 10 -16 6 -3 7 1 4 9 -7 18 -14 21 -14 7z"/>
<path d="M2230 1849 c0 -6 -9 -8 -21 -4 -15 5 -20 3 -17 -6 3 -8 16 -15 29
-17 19 -2 25 2 26 18 1 11 -2 20 -8 20 -5 0 -9 -5 -9 -11z"/>
<path d="M2585 1830 c-3 -5 -1 -10 4 -10 6 0 11 5 11 10 0 6 -2 10 -4 10 -3 0
-8 -4 -11 -10z"/>
<path d="M3410 1822 c0 -10 5 -10 23 -1 31 16 31 17 3 15 -14 0 -26 -7 -26
-14z"/>
<path d="M2146 1822 c-12 -11 -6 -24 8 -19 10 4 13 1 10 -8 -3 -8 -1 -21 4
-31 8 -14 10 -10 14 19 3 28 0 37 -14 40 -9 3 -19 2 -22 -1z"/>
<path d="M2556 1805 c-9 -26 -7 -32 5 -12 6 10 9 21 6 23 -2 3 -7 -2 -11 -11z"/>
<path d="M2201 1784 c0 -11 3 -14 6 -6 3 7 2 16 -1 19 -3 4 -6 -2 -5 -13z"/>
<path d="M2263 1755 c0 -9 4 -14 9 -13 5 2 10 8 10 13 0 5 -5 11 -10 13 -5 1
-9 -4 -9 -13z"/>
<path d="M2196 1745 c-3 -8 -1 -15 4 -15 6 0 10 -8 11 -17 0 -15 2 -15 8 2 9
21 4 45 -9 45 -4 0 -10 -7 -14 -15z"/>
<path d="M2579 1743 c-13 -16 -12 -17 4 -4 9 7 17 15 17 17 0 8 -8 3 -21 -13z"/>
<path d="M2270 1690 c-9 -16 -8 -18 5 -14 8 4 15 12 15 20 0 20 -7 17 -20 -6z"/>
<path d="M2520 1700 c-13 -9 -13 -10 0 -10 8 0 22 5 30 10 13 9 13 10 0 10 -8
0 -22 -5 -30 -10z"/>
<path d="M2590 1702 c0 -5 7 -9 15 -9 8 0 12 4 9 9 -3 4 -9 8 -15 8 -5 0 -9
-4 -9 -8z"/>
<path d="M2640 1701 c0 -5 5 -13 10 -16 6 -3 10 -2 10 4 0 5 -4 13 -10 16 -5
3 -10 2 -10 -4z"/>
<path d="M2240 1689 c0 -5 5 -7 10 -4 6 3 10 8 10 11 0 2 -4 4 -10 4 -5 0 -10
-5 -10 -11z"/>
<path d="M2384 1629 c-3 -6 -2 -15 3 -20 5 -5 9 -1 9 11 0 23 -2 24 -12 9z"/>
<path d="M2413 1621 c0 -11 5 -17 9 -15 5 3 6 9 3 14 -3 4 1 11 7 13 8 4 7 6
-4 6 -11 1 -16 -6 -15 -18z"/>
<path d="M2484 1625 c-17 -13 -17 -14 -2 -15 9 0 20 5 23 11 11 17 0 20 -21 4z"/>
<path d="M2953 1583 c-7 -2 -13 -13 -13 -23 0 -10 -4 -22 -10 -25 -15 -9 -12
-45 5 -51 18 -7 20 -30 3 -40 -7 -5 -8 -3 -3 7 7 11 6 12 -7 2 -8 -7 -18 -10
-21 -7 -4 4 -5 -3 -2 -15 3 -19 2 -20 -18 -9 -12 7 -25 11 -29 10 -13 -3 -9 5
9 19 11 10 14 10 9 2 -11 -20 3 -15 27 8 19 19 20 21 3 15 -14 -5 -16 -3 -9 6
6 7 13 23 16 36 5 20 -1 25 -29 21 -4 0 -11 5 -15 13 -5 8 -8 2 -6 -17 1 -22
-3 -30 -17 -33 -14 -3 -17 0 -12 12 3 9 9 23 12 31 3 8 1 15 -6 15 -6 0 -8 -5
-4 -12 5 -9 2 -9 -9 1 -11 9 -17 10 -17 2 0 -6 -4 -11 -10 -11 -5 0 -10 7 -10
15 0 8 -7 15 -15 15 -11 0 -15 -8 -13 -27 2 -20 -2 -28 -16 -31 -11 -3 -16 0
-11 7 3 6 11 8 17 5 7 -4 8 -2 4 4 -10 16 -53 15 -59 0 -4 -10 -6 -10 -6 -1
-1 7 -8 10 -16 7 -9 -4 -15 0 -15 7 0 11 -2 11 -9 -1 -6 -8 -7 -18 -5 -22 3
-4 2 -8 -3 -9 -63 -7 -72 -6 -77 6 -3 9 2 11 15 8 11 -3 19 0 19 6 0 7 -5 9
-12 5 -10 -6 -10 -4 0 8 10 13 9 16 -8 21 -11 3 -23 0 -27 -5 -3 -7 -1 -8 5
-4 7 4 12 2 12 -3 0 -6 -5 -11 -11 -11 -6 0 -10 -16 -9 -37 3 -60 2 -63 -27
-62 l-28 0 24 10 c13 5 21 12 18 15 -3 3 -19 -1 -36 -9 -20 -10 -31 -11 -34
-4 -2 6 -14 -5 -27 -24 -13 -19 -29 -37 -35 -41 -9 -7 26 -13 49 -9 5 1 3 -5
-4 -14 -15 -19 -9 -28 14 -19 9 3 13 11 9 17 -3 6 -1 7 5 3 8 -4 9 -14 4 -24
-5 -9 -7 -23 -6 -29 1 -7 2 -17 3 -23 0 -5 8 -10 16 -10 9 0 18 -7 21 -15 4
-8 15 -15 25 -15 11 0 23 -10 28 -22 5 -13 10 -22 12 -20 2 2 15 -1 29 -7 14
-5 21 -10 15 -11 -6 0 -6 -3 0 -8 6 -4 18 -19 28 -34 20 -33 33 -35 42 -9 7
22 45 18 45 -5 0 -8 6 -11 15 -8 19 8 21 -26 3 -44 -16 -16 -18 -128 -5 -210
8 -45 8 -65 0 -70 -5 -4 -10 -22 -11 -40 0 -18 -5 -39 -11 -45 -14 -18 -14
-28 1 -40 19 -16 40 -67 28 -67 -16 0 -12 -32 6 -52 12 -12 14 -21 7 -30 -6
-7 -10 -27 -10 -45 0 -20 -7 -39 -21 -50 -18 -16 -20 -24 -12 -68 10 -58 3
-121 -16 -150 -8 -11 -14 -27 -14 -36 0 -9 -10 -23 -22 -31 -20 -13 -21 -17
-9 -46 8 -18 17 -32 21 -32 4 0 10 -9 13 -20 3 -13 10 -18 21 -14 10 4 16 1
16 -9 0 -10 11 -17 33 -19 31 -3 44 0 87 22 11 5 31 10 45 10 14 0 25 4 25 10
0 5 11 12 25 16 14 3 22 10 19 15 -3 5 3 9 13 9 11 0 28 7 39 15 10 8 33 15
49 15 17 1 24 4 18 7 -7 2 -13 11 -13 20 0 12 3 12 17 -2 16 -16 17 -16 26 6
6 13 9 30 8 38 -1 7 7 24 19 36 15 16 20 30 15 44 -4 13 -2 21 5 21 7 0 9 7 6
16 -4 11 -2 15 6 11 9 -3 13 6 14 29 1 36 -12 44 -77 44 -44 0 -61 18 -53 56
3 16 -2 49 -11 73 -12 36 -13 46 -3 53 9 6 7 10 -9 14 -26 7 -31 24 -8 24 17
0 20 35 4 46 -6 3 -9 19 -5 34 4 24 1 30 -25 40 -19 8 -29 19 -26 29 2 9 -4
30 -14 46 -10 17 -16 44 -14 60 1 16 -1 41 -6 54 -6 16 -6 28 1 35 5 5 10 24
10 41 0 22 11 43 36 71 20 21 48 54 61 72 14 17 31 32 38 32 7 0 15 4 17 9 2
6 19 13 38 16 19 3 37 10 38 16 2 5 10 9 18 9 33 0 123 46 133 68 14 29 14 32
0 32 -5 0 -8 -4 -4 -9 3 -6 -4 -15 -15 -21 -17 -9 -20 -8 -20 10 0 11 -5 20
-11 20 -5 0 -7 6 -3 13 6 10 4 10 -7 0 -10 -10 -10 -16 -1 -25 7 -7 12 -17 12
-22 0 -6 -5 -4 -10 4 -6 10 -10 11 -10 3 0 -7 -5 -13 -10 -13 -6 0 -8 12 -5
28 2 15 -2 40 -10 56 -12 22 -12 32 -4 43 7 7 9 16 5 20 -3 3 -6 1 -6 -5 0 -6
-9 -9 -20 -7 -16 3 -24 -5 -36 -35 -18 -45 -33 -44 -35 3 -1 22 -3 25 -6 10
-5 -28 -33 -39 -33 -13 0 10 -5 22 -11 25 -6 4 -9 0 -7 -10 2 -10 -2 -20 -9
-22 -16 -6 -25 46 -14 85 7 25 7 32 -4 32 -7 0 -16 6 -18 13 -4 10 -6 10 -6 0
-1 -7 -6 -13 -12 -13 -5 0 -8 3 -5 8 2 4 -2 18 -10 32 -7 14 -13 19 -14 12 0
-8 -5 -10 -12 -6 -7 5 -9 2 -5 -8 4 -12 -1 -15 -19 -14 -20 1 -24 5 -20 21 3
11 6 23 6 28 0 4 7 7 15 7 8 0 15 5 15 10 0 11 -7 12 -27 3z m-313 -123 c-6
-11 -15 -18 -21 -15 -5 4 -1 16 8 30 21 27 30 16 13 -15z m-31 7 c-29 -28 -45
-30 -45 -6 0 10 3 16 6 14 3 -2 12 0 20 6 30 18 43 9 19 -14z m437 4 c-4 -5
-1 -12 4 -14 6 -3 5 -4 -2 -3 -15 3 -23 26 -8 26 6 0 9 -4 6 -9z m-500 -60
c-9 -10 -14 -26 -10 -37 5 -18 5 -18 -6 -1 -6 9 -17 15 -23 11 -7 -3 2 5 18
20 35 30 45 33 21 7z m49 9 c-3 -5 -11 -10 -16 -10 -6 0 -7 5 -4 10 3 6 11 10
16 10 6 0 7 -4 4 -10z m-95 -10 c0 -5 -5 -10 -11 -10 -5 0 -7 5 -4 10 3 6 8
10 11 10 2 0 4 -4 4 -10z m-50 -10 c0 -5 -5 -10 -11 -10 -5 0 -7 5 -4 10 3 6
8 10 11 10 2 0 4 -4 4 -10z m774 -72 c-3 -5 -12 -4 -20 3 -7 6 -11 16 -7 23 4
6 6 22 5 36 -1 17 2 13 12 -14 8 -22 13 -44 10 -48z"/>
<path d="M2618 1546 c-3 -15 -2 -29 2 -31 12 -8 21 25 11 42 -6 12 -9 10 -13
-11z"/>
<path d="M3030 1540 c0 -5 5 -10 11 -10 5 0 7 5 4 10 -3 6 -8 10 -11 10 -2 0
-4 -4 -4 -10z"/>
<path d="M3091 1527 c-1 -10 -5 -15 -11 -12 -5 3 -10 2 -10 -4 0 -5 4 -13 10
-16 11 -7 9 -33 -4 -53 -4 -7 -6 -15 -3 -18 2 -3 12 10 20 29 12 24 14 42 7
63 -5 17 -9 21 -9 11z"/>
<path d="M2460 1515 c-7 -8 -15 -13 -19 -11 -3 2 -15 0 -26 -5 l-20 -8 20 0
c17 -1 17 -3 5 -11 -9 -6 -10 -10 -3 -10 11 0 63 45 63 55 0 9 -8 5 -20 -10z"/>
<path d="M2514 1512 c4 -7 -6 -18 -26 -27 -26 -12 -27 -14 -8 -10 14 2 31 5
38 5 15 0 16 26 0 36 -7 4 -8 3 -4 -4z"/>
<path d="M2429 1453 c-13 -16 -12 -17 4 -4 16 13 21 21 13 21 -2 0 -10 -8 -17
-17z"/>
<path d="M3126 1447 c3 -10 9 -15 12 -12 3 3 0 11 -7 18 -10 9 -11 8 -5 -6z"/>
<path d="M4274 1107 c82 -46 101 -74 100 -145 -2 -109 -105 -268 -323 -501
l-31 -34 -20 23 c-11 13 -23 20 -27 16 -4 -4 3 -16 17 -26 25 -19 25 -19 5
-34 -11 -9 -25 -14 -32 -11 -7 2 -10 -2 -7 -9 6 -16 -32 -51 -40 -37 -4 5 -2
12 3 15 5 3 7 15 4 26 -3 11 0 20 6 20 7 0 9 16 6 45 -3 35 0 45 11 45 11 0
12 4 4 19 -13 26 -13 31 5 31 9 0 12 6 8 16 -3 9 0 20 7 24 11 7 11 12 2 23
-10 11 -8 20 9 41 l22 28 -23 31 c-13 17 -23 37 -23 44 0 7 -4 13 -8 13 -12 0
-19 -30 -19 -83 0 -29 -7 -65 -15 -81 -8 -15 -15 -36 -15 -46 0 -10 -7 -23
-15 -30 -8 -7 -15 -20 -15 -29 0 -10 -8 -26 -18 -37 -23 -24 -28 -92 -7 -100
7 -3 11 -12 8 -20 -3 -8 1 -14 11 -14 26 0 8 -23 -57 -72 -125 -94 -329 -192
-497 -239 -64 -17 -45 -18 1018 -18 l1082 -1 0 460 0 460 -54 0 c-30 0 -67 5
-83 11 -15 7 -118 15 -228 19 -193 8 -203 9 -295 43 -117 42 -155 54 -200 62
-68 12 -125 28 -140 40 -29 23 -101 45 -148 45 l-47 0 59 -33z"/>
<path d="M3980 1079 c0 -12 12 -36 27 -51 23 -24 25 -31 13 -38 -9 -6 -18 -3
-26 8 -14 20 -19 17 -28 -20 -6 -25 -4 -28 18 -28 13 0 38 14 56 30 l32 30
-25 21 c-15 11 -35 31 -47 46 l-20 26 0 -24z"/>
<path d="M4054 1049 c0 -14 4 -15 18 -8 10 5 18 11 18 13 0 2 -8 6 -18 8 -12
4 -18 -1 -18 -13z"/>
<path d="M4029 931 c-24 -21 -41 -43 -36 -47 4 -4 14 1 22 12 14 18 14 17 15
-11 l1 -30 14 25 c17 30 19 44 5 35 -18 -11 -11 4 12 25 41 38 11 30 -33 -9z"/>
<path d="M2057 936 c-57 -21 -114 -64 -162 -123 -24 -29 -46 -58 -48 -65 -4
-11 -7 -11 -14 0 -7 9 -45 -6 -159 -64 -82 -42 -183 -91 -225 -108 -42 -18
-100 -49 -130 -68 -30 -20 -139 -80 -244 -134 -210 -108 -264 -141 -377 -236
-43 -35 -95 -73 -117 -84 -21 -10 -44 -27 -50 -36 -11 -17 32 -18 886 -18 774
1 901 3 917 15 19 15 19 15 -1 15 -12 0 -25 4 -28 10 -3 5 -1 10 6 10 7 0 10
2 7 5 -3 3 -18 -1 -34 -10 l-29 -15 27 0 c15 0 30 -5 33 -11 5 -7 -6 -9 -31
-7 -26 2 -38 7 -36 16 1 8 -5 12 -15 10 -40 -6 -185 90 -213 142 -9 16 -2 17
78 17 75 0 87 2 84 17 -2 11 5 16 24 16 15 0 24 3 20 7 -4 5 -17 8 -29 8 -11
0 -22 6 -24 13 -3 7 4 12 14 12 31 0 45 21 25 36 -9 8 -21 13 -27 13 -5 0 -1
-6 9 -14 17 -13 17 -15 3 -21 -23 -8 -32 0 -35 34 -2 25 1 29 17 25 11 -3 21
2 24 11 5 13 3 15 -12 6 -14 -7 -22 -6 -32 7 -8 9 -13 19 -12 22 1 3 0 15 -2
26 -2 11 -7 56 -10 100 -9 128 -15 167 -25 180 -5 7 -7 15 -3 18 3 4 2 7 -3 7
-6 0 -15 -5 -22 -12 -7 -7 -12 -8 -12 -4 0 5 -6 3 -13 -3 -18 -14 -57 21 -58
52 -3 49 5 65 62 122 77 79 77 89 -4 61z"/>
<path d="M2170 843 c0 -28 5 -75 11 -104 10 -53 13 -76 23 -171 11 -96 48
-256 82 -353 36 -101 92 -215 106 -215 11 0 10 18 -2 41 -8 13 -7 19 0 19 6 0
9 4 5 9 -3 5 4 16 16 24 13 10 23 30 26 56 5 37 4 41 -16 41 -17 0 -21 5 -17
18 3 9 -3 28 -13 42 -15 19 -27 24 -56 22 -34 -3 -37 -1 -60 51 -29 66 -41
160 -37 292 5 145 -4 197 -39 241 l-29 37 0 -50z"/>
<path d="M3970 832 c0 -14 11 -21 26 -15 21 8 17 23 -6 23 -11 0 -20 -4 -20
-8z"/>
<path d="M2608 803 c7 -3 16 -2 19 1 4 3 -2 6 -13 5 -11 0 -14 -3 -6 -6z"/>
<path d="M2145 650 c-3 -5 -1 -10 4 -10 6 0 11 5 11 10 0 6 -2 10 -4 10 -3 0
-8 -4 -11 -10z"/>
<path d="M2560 560 c0 -5 4 -10 9 -10 6 0 13 5 16 10 3 6 -1 10 -9 10 -9 0
-16 -4 -16 -10z"/>
<path d="M2160 530 c0 -5 5 -10 11 -10 5 0 7 5 4 10 -3 6 -8 10 -11 10 -2 0
-4 -4 -4 -10z"/>
<path d="M2165 460 c-3 -5 -1 -10 4 -10 6 0 11 5 11 10 0 6 -2 10 -4 10 -3 0
-8 -4 -11 -10z"/>
<path d="M2183 433 c-15 -5 -17 -23 -4 -23 5 0 11 7 15 15 3 8 4 15 3 14 -1 0
-8 -3 -14 -6z"/>
<path d="M2654 349 c-3 -6 -1 -15 7 -19 10 -7 10 -11 0 -24 -12 -14 -11 -16 6
-16 29 0 32 8 16 41 -16 32 -19 34 -29 18z"/>
<path d="M2351 316 c-9 -11 -8 -15 5 -20 22 -8 24 -8 24 8 0 21 -16 28 -29 12z"/>
<path d="M3185 270 c3 -5 8 -10 11 -10 2 0 4 5 4 10 0 6 -5 10 -11 10 -5 0 -7
-4 -4 -10z"/>
<path d="M2208 203 c6 -2 18 -2 25 0 6 3 1 5 -13 5 -14 0 -19 -2 -12 -5z"/>
<path d="M2220 170 c0 -5 5 -10 10 -10 6 0 10 5 10 10 0 6 -4 10 -10 10 -5 0
-10 -4 -10 -10z"/>
<path d="M2228 139 c-9 -6 -7 -9 10 -9 24 0 30 -15 10 -23 -8 -3 -6 -6 5 -6
28 -2 19 -21 -10 -22 l-28 -1 27 -9 c22 -8 30 -7 47 10 21 21 21 21 1 21 -20
0 -28 16 -10 22 5 2 -1 8 -14 14 -14 7 -30 8 -38 3z"/>
<path d="M3090 90 c0 -5 12 -10 26 -10 14 0 23 4 19 10 -3 6 -15 10 -26 10
-10 0 -19 -4 -19 -10z"/>
<path d="M3000 70 c0 -5 9 -10 20 -10 11 0 20 5 20 10 0 6 -9 10 -20 10 -11 0
-20 -4 -20 -10z"/>
<path d="M3194 65 c8 -8 17 -15 20 -15 3 0 6 7 6 15 0 9 -9 15 -21 15 -18 0
-19 -2 -5 -15z"/>
<path d="M2828 3 c6 -2 18 -2 25 0 6 3 1 5 -13 5 -14 0 -19 -2 -12 -5z"/>
</g>
</svg>
